<svg xmlns="http://www.w3.org/2000/svg" viewBox="0 0 2751 2251">
<g transform="translate(-9124,-13724)">
<g xmlns="http://www.w3.org/2000/svg" id="id3">
        <rect class="BoundingBox" stroke="none" fill="none" x="9124" y="13724" width="2751" height="2251" />
        <defs>
         <clipPath id="clip_path_1" clipPathUnits="userSpaceOnUse">
          <path d="M 9124,13724 L 11874,13724 11874,15974 9124,15974 9124,13724 Z " />
         </clipPath>
        </defs>
        <g clip-path="url(#clip_path_1)">
         <path fill="rgb(238,171,74)" stroke="none" d="M 11885,15714 L 11885,15714 C 11885,15849 11770,15964 11635,15964 9385,15964 9385,15964 9385,15964 9239,15964 9135,15849 9135,15714 9135,13964 9135,13964 9135,13964 9135,13828 9239,13714 9385,13714 11635,13714 11635,13714 11635,13714 11770,13714 11885,13828 11885,13964 L 11885,15714 Z " />
         <path fill="rgb(255,255,255)" stroke="none" d="M 10114,15766 L 10114,15766 C 10041,15766 9999,15672 9999,15672 9999,15672 9572,14880 9572,14828 9572,14776 9593,14766 9593,14766 11406,14766 11406,14766 11406,14766 11406,14766 11426,14776 11426,14828 11426,14880 10999,15672 10999,15672 10999,15672 10958,15766 10885,15766 L 10114,15766 Z " />
         <path fill="rgb(255,255,255)" stroke="none" d="M 10812,15818 L 10187,15818 10187,15787 10812,15787 10812,15818 Z " />
         <path fill="rgb(255,255,255)" stroke="none" d="M 10572,13870 L 10572,13870 C 10572,13870 10593,13880 10593,13891 10645,13891 10645,13891 10645,13891 10645,13891 10656,13891 10656,13912 10656,13995 10656,13995 10656,13995 10656,13995 10656,14016 10635,14016 10603,14016 10603,14016 10603,14016 10603,14141 10603,14141 10603,14141 10781,14141 10781,14141 10781,14141 10781,14141 10791,14141 10791,14162 10791,14234 10791,14234 10791,14234 10791,14234 10791,14255 10770,14255 10603,14255 10603,14255 10603,14255 10603,14505 10603,14505 10603,14505 10697,14505 10697,14505 10697,14505 10697,14505 10728,14505 10728,14537 10728,14672 10728,14672 10728,14672 11468,14672 11468,14672 11468,14672 11468,14672 11510,14662 11510,14703 11510,14745 11468,14734 11468,14734 9541,14734 9541,14734 9541,14734 9541,14734 9499,14745 9499,14703 9499,14662 9541,14672 9541,14672 10281,14672 10281,14672 10281,14672 10281,14537 10281,14537 10281,14537 10281,14505 10312,14505 10312,14505 10406,14505 10406,14505 10406,14505 10406,14255 10406,14255 10406,14255 10239,14255 10239,14255 10239,14255 10218,14255 10218,14234 10218,14234 10218,14162 10218,14162 10218,14162 10218,14141 10228,14141 10228,14141 10406,14141 10406,14141 10406,14141 10406,14016 10406,14016 10406,14016 10374,14016 10374,14016 10374,14016 10353,14016 10353,13995 10353,13995 10353,13912 10353,13912 10353,13912 10353,13891 10364,13891 10364,13891 10416,13891 10416,13891 10416,13891 10416,13880 10437,13870 10437,13870 L 10572,13870 Z " />
         <path fill="rgb(255,255,255)" stroke="none" d="M 10260,14651 L 9916,14651 9916,14589 10260,14589 10260,14651 Z " />
         <path fill="rgb(255,255,255)" stroke="none" d="M 9833,14651 L 9489,14651 9489,14589 9833,14589 9833,14651 Z " />
         <path fill="rgb(255,255,255)" stroke="none" d="M 11520,14651 L 11176,14651 11176,14589 11520,14589 11520,14651 Z " />
         <path fill="rgb(255,255,255)" stroke="none" d="M 11093,14651 L 10749,14651 10749,14589 11093,14589 11093,14651 Z " />
        </g>
       </g>
      
</g>
</svg>
