<svg xmlns="http://www.w3.org/2000/svg" viewBox="0 0 2751 2251">
<g transform="translate(-9124,-13724)">
<g xmlns="http://www.w3.org/2000/svg" id="id3">
        <rect class="BoundingBox" stroke="none" fill="none" x="9124" y="13724" width="2751" height="2251" />
        <defs>
         <clipPath id="clip_path_1" clipPathUnits="userSpaceOnUse">
          <path d="M 9124,13724 L 11874,13724 11874,15974 9124,15974 9124,13724 Z " />
         </clipPath>
        </defs>
        <g clip-path="url(#clip_path_1)">
         <path fill="rgb(238,171,74)" stroke="none" d="M 11874,15734 L 11874,15734 C 11874,15859 11770,15963 11624,15963 9374,15963 9374,15963 9374,15963 9228,15963 9124,15859 9124,15734 9124,13963 9124,13963 9124,13963 9124,13818 9228,13713 9374,13713 11624,13713 11624,13713 11624,13713 11770,13713 11874,13818 11874,13963 11874,15734 11874,15734 11874,15734 Z " />
         <path fill="rgb(255,255,255)" stroke="none" d="M 11228,14849 L 11228,14849 C 11187,14849 11145,14880 11145,14922 11145,15432 11145,15432 11145,15432 9853,15432 9853,15432 9853,15432 9853,14922 9853,14922 9853,14922 9853,14880 9812,14849 9770,14849 9728,14849 9697,14880 9697,14922 9697,15515 9697,15515 9697,15515 9697,15557 9728,15588 9770,15588 11228,15588 11228,15588 11228,15588 11270,15588 11301,15557 11301,15515 11301,14922 11301,14922 11301,14922 11301,14880 11270,14849 11228,14849 Z " />
         <path fill="rgb(255,255,255)" stroke="none" d="M 10020,15276 L 10020,15276 C 10968,15276 10968,15276 10968,15276 10989,15276 11009,15255 11009,15234 11009,15161 11009,15161 11009,15161 11009,15130 10989,15109 10968,15109 10020,15109 10020,15109 10020,15109 9999,15109 9978,15130 9978,15161 9978,15234 9978,15234 9978,15234 9978,15255 9999,15276 10020,15276 Z " />
         <path fill="rgb(255,255,255)" stroke="none" d="M 10020,14932 L 10020,14932 C 10968,14932 10968,14932 10968,14932 10989,14932 11009,14911 11009,14890 11009,14818 11009,14818 11009,14818 11009,14786 10989,14765 10968,14765 10020,14765 10020,14765 10020,14765 9999,14765 9978,14786 9978,14818 9978,14890 9978,14890 9978,14890 9978,14911 9999,14932 10020,14932 Z " />
         <path fill="rgb(255,255,255)" stroke="none" d="M 10020,14588 L 10020,14588 C 10968,14588 10968,14588 10968,14588 10989,14588 11009,14578 11009,14547 11009,14474 11009,14474 11009,14474 11009,14443 10989,14422 10968,14422 10020,14422 10020,14422 10020,14422 9999,14422 9978,14443 9978,14474 9978,14547 9978,14547 9978,14547 9978,14578 9999,14588 10020,14588 Z " />
         <path fill="rgb(255,255,255)" stroke="none" d="M 10020,14255 L 10020,14255 C 10968,14255 10968,14255 10968,14255 10989,14255 11009,14234 11009,14203 11009,14130 11009,14130 11009,14130 11009,14109 10989,14088 10968,14088 10020,14088 10020,14088 10020,14088 9999,14088 9978,14109 9978,14130 9978,14203 9978,14203 9978,14203 9978,14234 9999,14255 10020,14255 Z " />
        </g>
       </g>
      
</g>
</svg>
