<svg xmlns="http://www.w3.org/2000/svg" viewBox="0 0 2501 2001">
<g transform="translate(-9249,-13849)">
<g xmlns="http://www.w3.org/2000/svg" id="id3">
        <rect class="BoundingBox" stroke="none" fill="none" x="9249" y="13849" width="2501" height="2001" />
        <path fill="rgb(255,255,255)" stroke="none" d="M 11031,14495 L 9989,14495 9989,13912 11031,13912 11031,14495 Z " />
        <path fill="rgb(255,255,255)" stroke="none" d="M 9249,14756 L 9249,14745 9249,14735 9260,14735 9260,14724 9260,14714 9260,14703 9260,14693 9270,14693 9270,14683 9270,14672 9281,14672 9281,14662 9281,14651 9291,14651 9291,14641 9301,14641 9301,14631 9312,14631 9312,14620 9322,14620 9322,14610 9333,14610 9343,14610 9343,14599 9353,14599 9364,14599 9364,14599 9374,14589 9385,14589 9395,14589 9395,14589 9406,14589 9406,14589 9406,14589 11603,14589 11614,14589 11614,14589 11624,14589 11635,14589 11635,14599 11645,14599 11656,14599 11656,14599 11666,14610 11676,14610 11676,14610 11687,14620 11697,14620 11697,14631 11708,14631 11708,14641 11718,14641 11718,14651 11718,14651 11728,14662 11728,14672 11739,14672 11739,14683 11739,14693 11749,14693 11749,14703 11749,14714 11749,14724 11749,14735 11749,14735 11749,14745 11749,14756 11749,15683 11749,15693 11749,15703 11749,15703 11749,15714 11749,15724 11749,15735 11749,15735 11739,15745 11739,15756 11739,15756 11728,15766 11728,15776 11718,15776 11718,15787 11718,15797 11708,15797 11708,15808 11697,15808 11697,15818 11687,15818 11676,15818 11676,15828 11666,15828 11656,15828 11656,15839 11645,15839 11635,15839 11635,15839 11624,15849 11614,15849 11614,15849 11603,15849 9406,15849 9395,15849 9395,15849 9385,15849 9374,15839 9364,15839 9364,15839 9353,15839 9343,15828 9343,15828 9333,15828 9322,15818 9322,15818 9312,15818 9312,15808 9301,15808 9301,15797 9291,15797 9291,15787 9281,15776 9281,15776 9281,15766 9270,15756 9270,15756 9270,15745 9260,15735 9260,15735 9260,15724 9260,15714 9260,15703 9249,15703 9249,15693 9249,15683 9249,14756 Z " />
        <path fill="rgb(125,125,125)" stroke="none" d="M 10020,14985 L 10968,14985 10968,14985 10968,14985 10968,14985 10978,14985 10978,14985 10978,14985 10978,14985 10978,14985 10978,14985 10989,14985 10989,14995 10989,14995 10989,14995 10989,14995 10999,15006 10999,15006 10999,15006 10999,15016 10999,15016 11010,15016 11010,15026 11010,15026 11176,15537 11176,15547 11176,15547 11176,15547 11176,15547 11176,15547 11176,15558 11176,15558 11176,15558 11176,15558 11176,15558 11176,15568 11176,15568 11176,15568 11166,15568 11166,15568 11166,15568 11166,15578 11166,15578 11166,15578 11166,15578 11156,15578 11156,15578 11156,15578 11156,15578 11156,15578 11145,15589 11145,15589 11145,15589 11145,15589 11145,15589 11135,15589 11135,15589 9874,15589 9874,15589 9874,15589 9874,15589 9864,15589 9864,15589 9864,15589 9864,15578 9864,15578 9853,15578 9853,15578 9853,15578 9853,15578 9853,15578 9853,15578 9843,15578 9843,15568 9843,15568 9843,15568 9843,15568 9843,15568 9843,15568 9843,15558 9833,15558 9833,15558 9833,15558 9833,15558 9833,15547 9833,15547 9833,15547 9833,15547 9833,15547 9833,15537 9978,15026 9989,15026 9989,15016 9989,15016 9989,15016 9989,15006 9989,15006 9999,15006 9999,14995 9999,14995 9999,14995 9999,14995 9999,14995 9999,14995 10010,14985 10010,14985 10010,14985 10010,14985 10010,14985 10010,14985 10020,14985 Z M 10958,15037 L 10958,15047 11114,15526 9895,15526 10031,15037 10958,15037 Z " />
        <path fill="rgb(125,125,125)" stroke="none" d="M 9406,14589 L 11603,14589 11614,14589 11614,14589 11624,14589 11635,14589 11635,14599 11645,14599 11656,14599 11656,14599 11666,14610 11676,14610 11676,14610 11687,14620 11697,14620 11697,14631 11708,14631 11708,14641 11718,14641 11718,14651 11718,14651 11728,14662 11728,14672 11739,14672 11739,14683 11739,14693 11749,14693 11749,14703 11749,14714 11749,14724 11749,14735 11749,14735 11749,14745 11749,14756 11749,15183 11166,15183 11103,14995 11093,14964 11083,14964 11083,14953 11083,14953 11083,14943 11083,14943 11072,14943 11072,14933 11072,14933 11062,14922 11062,14922 11051,14912 11051,14912 11020,14891 10989,14881 10968,14870 10020,14870 9989,14881 9958,14891 9937,14901 9916,14922 9916,14933 9906,14943 9906,14943 9895,14953 9895,14964 9895,14964 9885,14974 9885,14985 9833,15183 9249,15183 9249,14756 9249,14745 9249,14735 9260,14735 9260,14724 9260,14714 9260,14703 9260,14693 9270,14693 9270,14683 9270,14672 9281,14672 9281,14662 9281,14651 9291,14651 9291,14641 9301,14641 9301,14631 9312,14631 9312,14620 9322,14620 9322,14610 9333,14610 9343,14610 9343,14599 9353,14599 9364,14599 9364,14599 9374,14589 9385,14589 9395,14589 9395,14589 9406,14589 Z M 11291,14735 L 11541,14735 11541,14860 11291,14860 11291,14735 Z M 11749,15256 L 11749,15683 11749,15693 11749,15703 11749,15703 11749,15714 11749,15724 11749,15735 11749,15735 11739,15745 11739,15756 11739,15756 11728,15766 11728,15776 11718,15776 11718,15787 11718,15797 11708,15797 11708,15808 11697,15808 11697,15818 11687,15818 11676,15818 11676,15828 11666,15828 11656,15828 11656,15839 11645,15839 11635,15839 11635,15839 11624,15849 11614,15849 11614,15849 11603,15849 9406,15849 9395,15849 9395,15849 9385,15849 9374,15839 9364,15839 9364,15839 9353,15839 9343,15828 9343,15828 9333,15828 9322,15818 9322,15818 9312,15818 9312,15808 9301,15808 9301,15797 9291,15797 9291,15787 9281,15776 9281,15776 9281,15766 9270,15756 9270,15756 9270,15745 9260,15735 9260,15735 9260,15724 9260,15714 9260,15703 9249,15703 9249,15693 9249,15683 9249,15256 9812,15256 9728,15516 9728,15558 9739,15599 9749,15631 9770,15651 9801,15672 9822,15693 9843,15693 9874,15703 11135,15703 11156,15693 11187,15683 11208,15672 11228,15651 11249,15631 11270,15599 11281,15547 11270,15516 11187,15256 11749,15256 Z " />
        <path fill="rgb(125,125,125)" stroke="none" d="M 9978,13849 L 11031,13849 11031,13860 11031,13860 11041,13860 11041,13860 11041,13860 11051,13860 11051,13860 11051,13860 11051,13860 11062,13860 11062,13860 11062,13870 11062,13870 11072,13870 11072,13870 11072,13870 11072,13881 11072,13881 11083,13881 11083,13881 11083,13891 11083,13891 11083,13891 11083,13901 11083,13901 11093,13901 11093,13901 11093,13912 11093,13912 11093,13912 11093,13922 11093,13922 11093,14547 9916,14547 9916,13922 9916,13922 9916,13912 9916,13912 9916,13912 9916,13901 9916,13901 9916,13901 9916,13901 9926,13891 9926,13891 9926,13891 9926,13881 9926,13881 9926,13881 9937,13881 9937,13870 9937,13870 9937,13870 9937,13870 9947,13870 9947,13860 9947,13860 9947,13860 9958,13860 9958,13860 9958,13860 9968,13860 9968,13860 9968,13860 9968,13860 9978,13860 9978,13849 Z M 10020,13933 L 10989,13933 10999,13933 10999,13933 10999,13933 10999,13943 10999,13943 10999,13943 10999,13943 10999,13943 10999,14464 10010,14464 10010,13943 10010,13943 10010,13943 10010,13933 10010,13933 10010,13933 10010,13933 10010,13933 10010,13933 10020,13933 Z " />
       </g>
      
</g>
</svg>
