<svg xmlns="http://www.w3.org/2000/svg" viewBox="0 0 2751 2251">
<g transform="translate(-9124,-13724)">
<g xmlns="http://www.w3.org/2000/svg" id="id3">
        <rect class="BoundingBox" stroke="none" fill="none" x="9124" y="13724" width="2751" height="2251" />
        <defs>
         <clipPath id="clip_path_1" clipPathUnits="userSpaceOnUse">
          <path d="M 9124,13724 L 11874,13724 11874,15974 9124,15974 9124,13724 Z " />
         </clipPath>
        </defs>
        <g clip-path="url(#clip_path_1)">
         <path fill="rgb(6,98,170)" stroke="none" d="M 11885,15714 L 11885,15714 C 11885,15849 11770,15964 11635,15964 9385,15964 9385,15964 9385,15964 9249,15964 9135,15849 9135,15714 9135,13964 9135,13964 9135,13964 9135,13828 9249,13714 9385,13714 11635,13714 11635,13714 11635,13714 11770,13714 11885,13828 11885,13964 L 11885,15714 Z " />
         <path fill="rgb(254,255,255)" stroke="none" d="M 10801,15870 L 10801,15870 C 10801,15901 10843,15922 10906,15922 L 10906,15922 C 10968,15922 11020,15901 11020,15870 11020,13807 11020,13807 11020,13807 11020,13776 10968,13755 10906,13755 L 10906,13755 C 10843,13755 10801,13776 10801,13807 L 10801,15870 Z " />
         <path fill="rgb(254,255,255)" stroke="none" d="M 10489,14745 L 10385,14745 10385,14609 10489,14609 10489,14745 Z " />
         <path fill="rgb(254,255,255)" stroke="none" d="M 10812,14745 L 10760,14745 10760,14599 10812,14599 10812,14745 Z " />
         <path fill="rgb(254,255,255)" stroke="none" d="M 10531,14734 L 10478,14734 10478,14630 10531,14630 10531,14734 Z " />
         <path fill="rgb(254,255,255)" stroke="none" d="M 10989,15495 L 10989,15495 C 10989,15505 10978,15516 10968,15516 10364,15516 10364,15516 10364,15516 10353,15516 10353,15505 10353,15495 L 10353,15495 C 10353,15484 10353,15474 10364,15474 10968,15474 10968,15474 10968,15474 10978,15474 10989,15484 10989,15495 Z " />
         <path fill="rgb(254,255,255)" stroke="none" d="M 10489,15557 L 10385,15557 10385,15422 10489,15422 10489,15557 Z " />
         <path fill="rgb(254,255,255)" stroke="none" d="M 10812,15557 L 10760,15557 10760,15412 10812,15412 10812,15557 Z " />
         <path fill="rgb(254,255,255)" stroke="none" d="M 10531,15547 L 10478,15547 10478,15443 10531,15443 10531,15547 Z " />
         <path fill="rgb(254,255,255)" stroke="none" d="M 10062,15891 L 9999,15891 9999,14307 10062,14307 10062,15891 Z " />
         <path fill="rgb(254,255,255)" stroke="none" d="M 10385,15609 L 10385,15609 C 10385,15630 10374,15641 10353,15641 L 10353,15641 C 10343,15641 10322,15630 10322,15609 10322,14599 10322,14599 10322,14599 10322,14589 10343,14578 10353,14578 L 10353,14578 C 10374,14578 10385,14589 10385,14599 L 10385,15609 Z " />
         <path fill="rgb(254,255,255)" stroke="none" d="M 10333,15578 L 10031,15797 10041,14391 10333,14620 10333,15578 Z " />
         <path fill="rgb(254,255,255)" stroke="none" d="M 10989,14682 L 10989,14682 C 10989,14693 10978,14693 10978,14693 10353,14693 10353,14693 10353,14693 10353,14693 10343,14693 10343,14682 L 10343,14682 C 10343,14672 10353,14662 10353,14662 10978,14662 10978,14662 10978,14662 10978,14662 10989,14672 10989,14682 Z " />
         <path fill="rgb(254,255,255)" stroke="none" d="M 10406,15339 L 10333,15339 10333,14984 10406,14984 10406,15339 Z " />
         <path fill="rgb(254,255,255)" stroke="none" d="M 10437,15297 L 10385,15297 10385,15016 10437,15016 10437,15297 Z " />
         <path fill="rgb(254,255,255)" stroke="none" d="M 10468,15151 L 10468,15151 C 10468,15172 10458,15193 10437,15193 10416,15193 10406,15172 10406,15151 10406,15120 10416,15099 10437,15099 10458,15099 10468,15120 10468,15151 Z " />
        </g>
       </g>
      
</g>
</svg>
