<svg xmlns="http://www.w3.org/2000/svg" viewBox="0 0 2751 2251">
<g transform="translate(-9124,-13724)">
<g xmlns="http://www.w3.org/2000/svg" id="id3">
        <rect class="BoundingBox" stroke="none" fill="none" x="9124" y="13724" width="2751" height="2251" />
        <defs>
         <clipPath id="clip_path_1" clipPathUnits="userSpaceOnUse">
          <path d="M 9124,13724 L 11874,13724 11874,15974 9124,15974 9124,13724 Z " />
         </clipPath>
        </defs>
        <g clip-path="url(#clip_path_1)">
         <path fill="rgb(6,98,170)" stroke="none" d="M 11635,15964 L 11635,15964 C 9385,15964 9385,15964 9385,15964 9249,15964 9135,15849 9135,15714 9135,13964 9135,13964 9135,13964 9135,13818 9249,13714 9385,13714 11635,13714 11635,13714 11635,13714 11770,13714 11885,13818 11885,13964 11885,15714 11885,15714 11885,15714 11885,15849 11770,15964 11635,15964 Z " />
         <path fill="rgb(255,255,255)" stroke="none" d="M 10093,14359 L 10093,14359 C 10093,14182 10270,14047 10489,14047 10708,14047 10885,14182 10885,14359 10885,14537 10708,14672 10489,14672 10270,14672 10093,14537 10093,14359 Z " />
         <path fill="rgb(255,255,255)" stroke="none" d="M 9416,15432 L 9416,15432 C 9416,15328 9520,15245 9656,15245 9781,15245 9895,15328 9895,15432 9895,15547 9781,15630 9656,15630 9520,15630 9416,15547 9416,15432 Z " />
         <path fill="rgb(255,255,255)" stroke="none" d="M 10270,15432 L 10270,15432 C 10270,15328 10374,15245 10510,15245 10645,15245 10749,15328 10749,15432 10749,15547 10645,15630 10510,15630 10374,15630 10270,15547 10270,15432 Z " />
         <path fill="rgb(255,255,255)" stroke="none" d="M 11124,15432 L 11124,15432 C 11124,15328 11239,15245 11364,15245 11499,15245 11603,15328 11603,15432 11603,15547 11499,15630 11364,15630 11239,15630 11124,15547 11124,15432 Z " />
         <path fill="none" stroke="rgb(255,255,255)" stroke-width="63" stroke-linejoin="round" stroke-linecap="round" d="M 10510,14807 L 10510,14984 " />
         <path fill="rgb(255,255,255)" stroke="none" d="M 10364,14943 L 10499,15172 10645,14943 10364,14943 Z " />
         <path fill="none" stroke="rgb(255,255,255)" stroke-width="63" stroke-linejoin="round" stroke-linecap="round" d="M 10833,14807 L 11031,15005 " />
         <path fill="rgb(255,255,255)" stroke="none" d="M 10895,15078 L 11166,15141 11083,14880 10895,15078 Z " />
         <path fill="none" stroke="rgb(255,255,255)" stroke-width="63" stroke-linejoin="round" stroke-linecap="round" d="M 10166,14807 L 9968,15005 " />
         <path fill="rgb(255,255,255)" stroke="none" d="M 9885,14880 L 9822,15141 10093,15078 9885,14880 Z " />
        </g>
       </g>
      
</g>
</svg>
